<svg width="60" height="59" viewBox="0 0 60 59" fill="none" xmlns="http://www.w3.org/2000/svg">
<path d="M43.9885 21.2857H44.0109M44.0109 15.7747V8.88875M17.4046 57H9.6092C8.70478 57 7.79476 56.8735 6.96314 56.5242C4.25827 55.383 2.88344 53.8732 2.24502 52.93C2.07176 52.6687 1.98663 52.3605 2.00171 52.049C2.01678 51.7376 2.1313 51.4387 2.32902 51.1948C5.4651 47.1028 12.7341 44.6332 17.4046 44.6332M17.4186 57H25.2112C26.1184 57 27.0256 56.8735 27.8573 56.5242C30.5649 55.383 31.937 53.8732 32.5782 52.93C32.7514 52.6687 32.8366 52.3605 32.8215 52.049C32.8064 51.7376 32.6919 51.4387 32.4942 51.1948C29.3581 47.1028 22.0891 44.6332 17.4186 44.6332M58 15.178C58 22.4545 51.7278 28.356 43.9885 28.356C43.0775 28.356 42.174 28.2735 41.278 28.1085C40.634 27.9903 40.3148 27.9325 40.088 27.9655C39.864 27.9985 39.5447 28.1635 38.9119 28.499C37.0993 29.448 35.0131 29.7669 32.9926 29.4037C33.7598 28.4742 34.2806 27.3605 34.513 26.167C34.653 25.4382 34.3058 24.7288 33.785 24.209C31.3532 21.8093 29.9846 18.5636 29.9769 15.178C29.9769 7.9015 36.2491 2 43.9885 2C51.7278 2 58 7.9015 58 15.178ZM25.1972 30.2947C25.1942 32.3185 24.3732 34.2582 22.9146 35.6876C21.456 37.1171 19.4792 37.9192 17.4186 37.9177C16.3978 37.9192 15.3868 37.7232 14.4431 37.3409C13.4995 36.9585 12.6418 36.3974 11.919 35.6896C11.1961 34.9817 10.6224 34.141 10.2304 33.2153C9.83838 32.2897 9.63587 31.2973 9.6344 30.2947C9.63551 29.292 9.83774 28.2993 10.2296 27.3733C10.6214 26.4474 11.1951 25.6063 11.918 24.8981C12.6409 24.19 13.4987 23.6286 14.4425 23.2462C15.3863 22.8637 16.3976 22.6676 17.4186 22.669C19.4796 22.6675 21.4569 23.4701 22.9156 24.9001C24.3743 26.3301 25.195 28.2706 25.1972 30.2947Z" stroke="url(#paint0_linear_49_204)" stroke-width="4" stroke-linecap="round" stroke-linejoin="round"/>
<defs>
<linearGradient id="paint0_linear_49_204" x1="30" y1="2" x2="30" y2="57" gradientUnits="userSpaceOnUse">
<stop offset="0.192308" stop-color="#3F0C5A"/>
<stop offset="1" stop-color="#861AC0"/>
</linearGradient>
</defs>
</svg>
