<svg width="61" height="64" viewBox="0 0 61 64" fill="none" xmlns="http://www.w3.org/2000/svg">
<path d="M26.147 64C24.3494 64 22.8111 63.3739 21.5321 62.1216C20.253 60.8693 19.6124 59.3621 19.6103 57.6H32.6838C32.6838 59.36 32.0442 60.8672 30.7652 62.1216C29.4862 63.376 27.9468 64.0021 26.147 64ZM3.26839 54.4C2.34235 54.4 1.56665 54.0928 0.941303 53.4784C0.315955 52.864 0.00219019 52.1045 1.12702e-05 51.2C-0.00216765 50.2955 0.311597 49.536 0.941303 48.9216C1.57101 48.3072 2.3467 48 3.26839 48H6.53676V25.6C6.53676 21.1733 7.89858 17.2405 10.6222 13.8016C13.3459 10.3627 16.8866 8.10881 21.2444 7.04001V4.80001C21.2444 3.46667 21.7216 2.33387 22.676 1.40161C23.6304 0.46934 24.7874 0.00214061 26.147 7.27273e-06C27.5067 -0.00212606 28.6647 0.465074 29.6213 1.40161C30.5778 2.33814 31.0539 3.47094 31.0496 4.80001V7.04001C31.1585 7.09334 31.2675 7.12001 31.3764 7.12001C31.4854 7.12001 31.5943 7.14667 31.7032 7.20001C32.9016 7.52001 33.5009 8.33387 33.5009 9.64161C33.5009 10.9493 32.7927 11.8955 31.3764 12.48C29.8512 13.12 28.3804 13.84 26.9641 14.64C25.5478 15.44 24.186 16.32 22.8786 17.28C20.8631 18.72 19.8151 20.72 19.7345 23.28C19.6538 25.84 20.5657 28.0533 22.4701 29.92L39.0571 46.16C39.6563 46.7467 40.3514 47.2 41.1423 47.52C41.9333 47.84 42.7634 48 43.6328 48H49.0256C49.9517 48 50.7285 48.3072 51.356 48.9216C51.9835 49.536 52.2962 50.2955 52.294 51.2C52.2918 52.1045 51.9781 52.8651 51.3527 53.4816C50.7274 54.0981 49.9517 54.4043 49.0256 54.4H3.26839ZM43.5511 20.8C41.0453 20.8 38.6758 21.2 36.4424 22C34.209 22.8 32.1935 23.8933 30.3959 25.28C29.8512 25.7067 29.2389 25.92 28.5591 25.92C27.8792 25.92 27.2931 25.68 26.8007 25.2C26.3082 24.72 26.0904 24.1333 26.147 23.44C26.2037 22.7467 26.5033 22.1867 27.0458 21.76C29.3337 19.9467 31.8808 18.5333 34.6873 17.52C37.4937 16.5067 40.4756 16 43.6328 16C46.7901 16 49.7588 16.5067 52.5391 17.52C55.3194 18.5333 57.8524 19.9467 60.1381 21.76C60.6828 22.1867 60.9694 22.7467 60.9977 23.44C61.026 24.1333 60.794 24.72 60.3015 25.2C59.8091 25.68 59.2371 25.92 58.5856 25.92C57.9341 25.92 57.3349 25.7067 56.788 25.28C54.9904 23.8933 52.9618 22.8 50.7023 22C48.4428 21.2 46.059 20.8 43.5511 20.8ZM43.6328 30.4C42.4889 30.4 41.3853 30.56 40.3219 30.88C39.2586 31.2 38.2651 31.6533 37.3412 32.24C36.742 32.6133 36.1297 32.7872 35.5044 32.7616C34.879 32.736 34.3201 32.4821 33.8277 32C33.3353 31.5179 33.1043 30.9579 33.1348 30.32C33.1653 29.6821 33.4507 29.1488 33.9911 28.72C35.3529 27.76 36.8379 27.0005 38.4459 26.4416C40.0539 25.8827 41.7557 25.6021 43.5511 25.6C45.3465 25.5979 47.0766 25.8784 48.7413 26.4416C50.406 27.0048 51.917 27.7643 53.2745 28.72C53.8192 29.1467 54.1058 29.68 54.1341 30.32C54.1624 30.96 53.9304 31.52 53.4379 32C52.9455 32.48 52.3735 32.72 51.722 32.72C51.0705 32.72 50.4441 32.5333 49.8427 32.16C48.9167 31.5733 47.9362 31.1328 46.9012 30.8384C45.8662 30.544 44.7767 30.3979 43.6328 30.4ZM43.6328 41.6C42.7068 41.6 41.9311 41.2939 41.3057 40.6816C40.6804 40.0693 40.3666 39.3088 40.3644 38.4C40.3623 37.4912 40.676 36.7317 41.3057 36.1216C41.9354 35.5115 42.7111 35.2043 43.6328 35.2C44.5545 35.1957 45.3313 35.5029 45.9632 36.1216C46.595 36.7403 46.9077 37.4997 46.9012 38.4C46.8946 39.3003 46.5809 40.0608 45.9599 40.6816C45.3389 41.3024 44.5632 41.6085 43.6328 41.6Z" fill="url(#paint0_linear_49_207)"/>
<defs>
<linearGradient id="paint0_linear_49_207" x1="30.5" y1="0" x2="30.5" y2="64" gradientUnits="userSpaceOnUse">
<stop offset="0.173077" stop-color="#3F0C5A"/>
<stop offset="1" stop-color="#861AC0"/>
</linearGradient>
</defs>
</svg>
