<svg width="46" height="46" viewBox="0 0 46 46" fill="none" xmlns="http://www.w3.org/2000/svg">
<path d="M44.2552 7.20968L23.8099 0.137559C23.2863 -0.0458529 22.7192 -0.0458529 22.1956 0.137559L1.75026 7.20968C1.26242 7.37735 0.834614 7.69374 0.522695 8.11756C0.210777 8.54139 0.0292336 9.05295 0.00176223 9.58547C-0.000587409 9.63185 -0.000587409 9.67832 0.00176223 9.7247V27.405C0.00176223 28.1084 0.271019 28.7829 0.750299 29.2803C1.22958 29.7776 1.87962 30.0571 2.55742 30.0571C3.23523 30.0571 3.88527 29.7776 4.36455 29.2803C4.84383 28.7829 5.11309 28.1084 5.11309 27.405V13.4044L10.1627 15.1503C8.59551 18.2632 8.12981 21.8477 8.84659 25.2801C9.56337 28.7124 11.4173 31.7753 14.0856 33.9357C10.5938 35.7225 7.63857 38.4652 5.53903 41.8675C5.34996 42.1591 5.21863 42.4868 5.15268 42.8315C5.08673 43.1763 5.08747 43.5312 5.15485 43.8756C5.22224 44.22 5.35493 44.5471 5.54521 44.8379C5.73549 45.1287 5.97957 45.3773 6.26325 45.5693C6.54693 45.7613 6.86456 45.8929 7.19768 45.9564C7.5308 46.0199 7.87276 46.014 8.20368 45.9392C8.5346 45.8643 8.84789 45.722 9.12532 45.5204C9.40276 45.3188 9.63881 45.062 9.81977 44.7649C12.8589 39.9116 17.6784 37.1292 23.0027 37.1292C28.327 37.1292 33.1466 39.9116 36.1963 44.7649C36.3773 45.062 36.6133 45.3188 36.8908 45.5204C37.1682 45.722 37.4815 45.8643 37.8124 45.9392C38.1433 46.014 38.4853 46.0199 38.8184 45.9564C39.1515 45.8929 39.4692 45.7613 39.7528 45.5693C40.0365 45.3773 40.2806 45.1287 40.4709 44.8379C40.6612 44.5471 40.7939 44.22 40.8612 43.8756C40.9286 43.5312 40.9294 43.1763 40.8634 42.8315C40.7975 42.4868 40.6661 42.1591 40.4771 41.8675C38.3755 38.4612 35.4164 35.716 31.9199 33.929C34.5882 31.7687 36.4421 28.7058 37.1589 25.2734C37.8756 21.8411 37.4099 18.2565 35.8428 15.1437L44.2552 12.2331C44.7634 12.0567 45.2053 11.7189 45.5184 11.2676C45.8315 10.8162 46 10.2742 46 9.71807C46 9.16196 45.8315 8.61991 45.5184 8.16858C45.2053 7.71726 44.7634 7.37949 44.2552 7.20305V7.20968ZM23.0027 5.44165L35.3657 9.7247L23.0027 14.0011L10.6504 9.7247L23.0027 5.44165ZM32.3735 22.1009C32.3738 23.6113 32.035 25.101 31.384 26.452C30.733 27.8029 29.7877 28.9779 28.623 29.8838C27.4583 30.7897 26.1063 31.4016 24.6741 31.671C23.242 31.9404 21.769 31.8599 20.372 31.4359C18.975 31.0118 17.6924 30.2559 16.6259 29.2281C15.5594 28.2003 14.7382 26.9287 14.2276 25.5143C13.7169 24.0999 13.5308 22.5815 13.684 21.0795C13.8372 19.5774 14.3254 18.1331 15.11 16.8609L22.1956 19.3118C22.7193 19.4944 23.2862 19.4944 23.8099 19.3118L30.8955 16.8609C31.8619 18.4245 32.3749 20.2434 32.3735 22.1009Z" fill="url(#paint0_linear_49_205)"/>
<defs>
<linearGradient id="paint0_linear_49_205" x1="23" y1="0" x2="23" y2="46" gradientUnits="userSpaceOnUse">
<stop offset="0.269231" stop-color="#3F0C5A"/>
<stop offset="1" stop-color="#861AC0"/>
</linearGradient>
</defs>
</svg>
